<svg xmlns="http://www.w3.org/2000/svg" width="17" height="25" viewBox="0 0 17 25">
  <path fill-rule="evenodd" d="M13.0002,16.5 C13.0002,16.776 12.7762,17 12.5002,17 L4.5002,17 C4.2242,17 4.0002,16.776 4.0002,16.5 C4.0002,16.224 4.2242,16 4.5002,16 L12.5002,16 C12.7762,16 13.0002,16.224 13.0002,16.5 L13.0002,16.5 Z M10.0002,18.5 C10.0002,18.776 9.7762,19 9.5002,19 L4.5002,19 C4.2242,19 4.0002,18.776 4.0002,18.5 C4.0002,18.224 4.2242,18 4.5002,18 L9.5002,18 C9.7762,18 10.0002,18.224 10.0002,18.5 L10.0002,18.5 Z M7.0002,8.5 C7.0002,7.915 7.3012,7.619 8.0002,7.531 L8.0002,9.32 C7.4262,9.126 7.0002,8.899 7.0002,8.5 L7.0002,8.5 Z M10.0002,11.5 C10.0002,12.085 9.6992,12.381 9.0002,12.469 L9.0002,10.68 C9.5742,10.874 10.0002,11.101 10.0002,11.5 L10.0002,11.5 Z M7.0002,11.5 C7.0002,11.224 6.7762,11 6.5002,11 C6.2242,11 6.0002,11.224 6.0002,11.5 C6.0002,12.184 6.2892,13.278 8.0002,13.462 L8.0002,13.5 C8.0002,13.776 8.2242,14 8.5002,14 C8.7762,14 9.0002,13.776 9.0002,13.5 L9.0002,13.462 C10.7112,13.278 11.0002,12.184 11.0002,11.5 C11.0002,10.287 9.8032,9.871 9.0002,9.629 L9.0002,7.531 C9.6992,7.619 10.0002,7.915 10.0002,8.5 C10.0002,8.776 10.2242,9 10.5002,9 C10.7762,9 11.0002,8.776 11.0002,8.5 C11.0002,7.816 10.7112,6.722 9.0002,6.538 L9.0002,6.5 C9.0002,6.224 8.7762,6 8.5002,6 C8.2242,6 8.0002,6.224 8.0002,6.5 L8.0002,6.538 C6.2892,6.722 6.0002,7.816 6.0002,8.5 C6.0002,9.713 7.1972,10.129 8.0002,10.371 L8.0002,12.469 C7.3012,12.381 7.0002,12.085 7.0002,11.5 L7.0002,11.5 Z M16.0002,23.185 L14.2072,21.168 C14.1122,21.062 13.9772,21 13.8332,21 C13.6912,21 13.5552,21.062 13.4602,21.168 L11.1672,23.747 L8.8742,21.168 C8.7792,21.062 8.6432,21 8.5002,21 C8.3572,21 8.2212,21.062 8.1262,21.168 L5.8332,23.747 L3.5402,21.168 C3.3502,20.954 2.9812,20.955 2.7932,21.168 L1.0002,23.185 L1.0002,1.815 L2.7932,3.832 C2.8882,3.938 3.0232,4 3.1672,4 C3.3092,4 3.4452,3.938 3.5402,3.832 L5.8332,1.253 L8.1262,3.832 C8.3162,4.045 8.6842,4.045 8.8742,3.832 L11.1672,1.253 L13.4602,3.832 C13.6492,4.045 14.0172,4.044 14.2072,3.832 L16.0002,1.815 L16.0002,23.185 Z M16.6782,0.032 C16.4822,-0.04 16.2652,0.012 16.1262,0.168 L13.8332,2.747 L11.5402,0.168 C11.3502,-0.045 10.9812,-0.045 10.7932,0.168 L8.5002,2.747 L6.2072,0.168 C6.1122,0.062 5.9772,0 5.8332,0 C5.6912,0 5.5552,0.062 5.4602,0.168 L3.1672,2.747 L0.8742,0.168 C0.7362,0.013 0.5182,-0.04 0.3222,0.032 C0.1282,0.106 0.0002,0.292 0.0002,0.5 L0.0002,24.5 C0.0002,24.708 0.1282,24.894 0.3222,24.968 C0.5172,25.039 0.7362,24.988 0.8742,24.832 L3.1672,22.253 L5.4602,24.832 C5.6492,25.044 6.0172,25.044 6.2072,24.832 L8.5002,22.253 L10.7932,24.832 C10.8882,24.938 11.0232,25 11.1672,25 C11.3092,25 11.4452,24.938 11.5402,24.832 L13.8332,22.253 L16.1262,24.832 C16.2232,24.941 16.3602,25 16.5002,25 C16.5602,25 16.6202,24.989 16.6782,24.968 C16.8722,24.894 17.0002,24.708 17.0002,24.5 L17.0002,0.5 C17.0002,0.292 16.8722,0.106 16.6782,0.032 L16.6782,0.032 Z"/>
</svg>
